<?xml version="1.0" encoding="UTF-8"?>
<!DOCTYPE svg PUBLIC "-//W3C//DTD SVG 1.1//EN" "http://www.w3.org/Graphics/SVG/1.1/DTD/svg11.dtd">
<svg xmlns="http://www.w3.org/2000/svg" xmlns:xlink="http://www.w3.org/1999/xlink" version="1.1" width="690px" height="572px" viewBox="-0.5 -0.5 690 572"><defs><clipPath id="mx-clip-44-111-152-26-0"><rect x="44" y="111" width="152" height="26"/></clipPath><clipPath id="mx-clip-44-137-152-68-0"><rect x="44" y="137" width="152" height="68"/></clipPath><clipPath id="mx-clip-44-205-152-26-0"><rect x="44" y="205" width="152" height="26"/></clipPath><clipPath id="mx-clip-44-231-152-26-0"><rect x="44" y="231" width="152" height="26"/></clipPath><clipPath id="mx-clip-44-257-152-26-0"><rect x="44" y="257" width="152" height="26"/></clipPath><clipPath id="mx-clip-44-283-152-26-0"><rect x="44" y="283" width="152" height="26"/></clipPath><clipPath id="mx-clip-44-309-152-26-0"><rect x="44" y="309" width="152" height="26"/></clipPath><clipPath id="mx-clip-44-335-152-26-0"><rect x="44" y="335" width="152" height="26"/></clipPath><clipPath id="mx-clip-484-511-152-26-0"><rect x="484" y="511" width="152" height="26"/></clipPath><clipPath id="mx-clip-484-537-152-26-0"><rect x="484" y="537" width="152" height="26"/></clipPath><clipPath id="mx-clip-484-421-152-26-0"><rect x="484" y="421" width="152" height="26"/></clipPath><clipPath id="mx-clip-484-447-152-26-0"><rect x="484" y="447" width="152" height="26"/></clipPath><clipPath id="mx-clip-264-31-152-26-0"><rect x="264" y="31" width="152" height="26"/></clipPath><clipPath id="mx-clip-264-57-152-26-0"><rect x="264" y="57" width="152" height="26"/></clipPath><clipPath id="mx-clip-264-83-152-26-0"><rect x="264" y="83" width="152" height="26"/></clipPath><clipPath id="mx-clip-264-109-152-56-0"><rect x="264" y="109" width="152" height="56"/></clipPath><clipPath id="mx-clip-264-165-152-30-0"><rect x="264" y="165" width="152" height="30"/></clipPath><clipPath id="mx-clip-484-51-162-26-0"><rect x="484" y="51" width="162" height="26"/></clipPath><clipPath id="mx-clip-484-77-162-26-0"><rect x="484" y="77" width="162" height="26"/></clipPath><clipPath id="mx-clip-484-103-162-26-0"><rect x="484" y="103" width="162" height="26"/></clipPath><clipPath id="mx-clip-484-129-162-26-0"><rect x="484" y="129" width="162" height="26"/></clipPath><clipPath id="mx-clip-264-245-152-26-0"><rect x="264" y="245" width="152" height="26"/></clipPath><clipPath id="mx-clip-264-271-152-26-0"><rect x="264" y="271" width="152" height="26"/></clipPath><clipPath id="mx-clip-264-297-152-26-0"><rect x="264" y="297" width="152" height="26"/></clipPath><clipPath id="mx-clip-264-323-152-26-0"><rect x="264" y="323" width="152" height="26"/></clipPath><clipPath id="mx-clip-264-349-152-40-0"><rect x="264" y="349" width="152" height="40"/></clipPath><clipPath id="mx-clip-264-389-152-26-0"><rect x="264" y="389" width="152" height="26"/></clipPath><clipPath id="mx-clip-264-415-152-26-0"><rect x="264" y="415" width="152" height="26"/></clipPath><clipPath id="mx-clip-264-441-152-26-0"><rect x="264" y="441" width="152" height="26"/></clipPath><clipPath id="mx-clip-264-467-152-26-0"><rect x="264" y="467" width="152" height="26"/></clipPath><clipPath id="mx-clip-264-493-152-28-0"><rect x="264" y="493" width="152" height="28"/></clipPath><clipPath id="mx-clip-264-521-152-26-0"><rect x="264" y="521" width="152" height="26"/></clipPath><clipPath id="mx-clip-264-547-152-26-0"><rect x="264" y="547" width="152" height="26"/></clipPath><clipPath id="mx-clip-484-281-152-26-0"><rect x="484" y="281" width="152" height="26"/></clipPath><clipPath id="mx-clip-484-307-152-28-0"><rect x="484" y="307" width="152" height="28"/></clipPath><clipPath id="mx-clip-484-335-152-26-0"><rect x="484" y="335" width="152" height="26"/></clipPath><clipPath id="mx-clip-484-361-152-26-0"><rect x="484" y="361" width="152" height="26"/></clipPath><clipPath id="mx-clip-4-5-62-30-0"><rect x="4" y="5" width="62" height="30"/></clipPath><clipPath id="mx-clip-84-5-22-30-0"><rect x="84" y="5" width="22" height="30"/></clipPath><clipPath id="mx-clip-124-5-22-30-0"><rect x="124" y="5" width="22" height="30"/></clipPath></defs><g><path d="M 40 106 L 40 80 L 200 80 L 200 106" fill="#ffffff" stroke="#000000" stroke-miterlimit="10" pointer-events="all"/><path d="M 40 106 L 40 356 L 200 356 L 200 106" fill="none" stroke="#000000" stroke-miterlimit="10" pointer-events="none"/><path d="M 40 106 L 200 106" fill="none" stroke="#000000" stroke-miterlimit="10" pointer-events="none"/><g fill="#000000" font-family="Helvetica" pointer-events="none" text-anchor="middle" font-size="14px"><text x="119.5" y="98.5">users</text></g><rect x="40" y="106" width="160" height="26" fill="#fff2cc" stroke="#d6b656" pointer-events="none"/><g fill="#000000" font-family="Helvetica" pointer-events="none" clip-path="url(#mx-clip-44-111-152-26-0)" font-size="12px"><text x="45.5" y="123.5">id (integer)</text></g><rect x="40" y="132" width="160" height="68" fill="#f5f5f5" stroke="#666666" pointer-events="none"/><g fill="#333333" font-family="Helvetica" pointer-events="none" clip-path="url(#mx-clip-44-137-152-68-0)" font-size="12px"><text x="45.5" y="149.5">role (enum) </text><text x="45.5" y="163.5">default - client</text><text x="45.5" y="177.5">salesman</text><text x="45.5" y="191.5">admin</text></g><rect x="40" y="200" width="160" height="26" fill="#f8cecc" stroke="#b85450" pointer-events="none"/><g fill="#000000" font-family="Helvetica" pointer-events="none" clip-path="url(#mx-clip-44-205-152-26-0)" font-size="12px"><text x="45.5" y="217.5">email  (string)</text></g><rect x="40" y="226" width="160" height="26" fill="#f8cecc" stroke="#b85450" pointer-events="none"/><g fill="#000000" font-family="Helvetica" pointer-events="none" clip-path="url(#mx-clip-44-231-152-26-0)" font-size="12px"><text x="45.5" y="243.5">login  (string)</text></g><rect x="40" y="252" width="160" height="26" fill="#f8cecc" stroke="#b85450" pointer-events="none"/><g fill="#000000" font-family="Helvetica" pointer-events="none" clip-path="url(#mx-clip-44-257-152-26-0)" font-size="12px"><text x="45.5" y="269.5">password  (string)</text></g><rect x="40" y="278" width="160" height="26" fill="#f8cecc" stroke="#b85450" pointer-events="none"/><g fill="#000000" font-family="Helvetica" pointer-events="none" clip-path="url(#mx-clip-44-283-152-26-0)" font-size="12px"><text x="45.5" y="295.5">balance (real)</text></g><rect x="40" y="304" width="160" height="26" fill="#f5f5f5" stroke="#666666" pointer-events="none"/><g fill="#333333" font-family="Helvetica" pointer-events="none" clip-path="url(#mx-clip-44-309-152-26-0)" font-size="12px"><text x="45.5" y="321.5">name (string)</text></g><rect x="40" y="330" width="160" height="26" fill="#f5f5f5" stroke="#666666" pointer-events="none"/><g fill="#333333" font-family="Helvetica" pointer-events="none" clip-path="url(#mx-clip-44-335-152-26-0)" font-size="12px"><text x="45.5" y="347.5">phone  (string)</text></g><path d="M 420 39 L 440 39 Q 450 39 450 49 L 450 55.5 Q 450 62 450 72 L 450 78.5 Q 450 85 460 85 L 480 85" fill="none" stroke="#000000" stroke-miterlimit="10" pointer-events="none"/><path d="M 472 89 L 472 81 M 480 81 L 472 85 L 480 89" fill="none" stroke="#000000" stroke-miterlimit="10" pointer-events="none"/><path d="M 420 555 L 440 555 Q 450 555 450 546 L 450 541.5 Q 450 537 450 528 L 450 523.5 Q 450 519 460 519 L 480 519" fill="none" stroke="#000000" stroke-miterlimit="10" pointer-events="none"/><path d="M 472 523 L 472 515 M 480 515 L 472 519 L 480 523" fill="none" stroke="#000000" stroke-miterlimit="10" pointer-events="none"/><path d="M 420 529 L 440 529 Q 450 529 450 519 L 450 489 Q 450 479 450 469 L 450 439 Q 450 429 460 429 L 480 429" fill="none" stroke="#000000" stroke-miterlimit="10" pointer-events="none"/><path d="M 472 433 L 472 425 M 480 425 L 472 429 L 480 433" fill="none" stroke="#000000" stroke-miterlimit="10" pointer-events="none"/><path d="M 480 506 L 480 480 L 640 480 L 640 506" fill="#ffffff" stroke="#000000" stroke-miterlimit="10" pointer-events="none"/><path d="M 480 506 L 480 558 L 640 558 L 640 506" fill="none" stroke="#000000" stroke-miterlimit="10" pointer-events="none"/><path d="M 480 506 L 640 506" fill="none" stroke="#000000" stroke-miterlimit="10" pointer-events="none"/><g fill="#000000" font-family="Helvetica" pointer-events="none" text-anchor="middle" font-size="14px"><text x="559.5" y="498.5">categories</text></g><rect x="480" y="506" width="160" height="26" fill="#fff2cc" stroke="#d6b656" pointer-events="none"/><g fill="#000000" font-family="Helvetica" pointer-events="none" clip-path="url(#mx-clip-484-511-152-26-0)" font-size="12px"><text x="485.5" y="523.5">id (integer)</text></g><rect x="480" y="532" width="160" height="26" fill="#f8cecc" stroke="#b85450" pointer-events="none"/><g fill="#000000" font-family="Helvetica" pointer-events="none" clip-path="url(#mx-clip-484-537-152-26-0)" font-size="12px"><text x="485.5" y="549.5">category (string)</text></g><path d="M 480 416 L 480 390 L 640 390 L 640 416" fill="#ffffff" stroke="#000000" stroke-miterlimit="10" pointer-events="none"/><path d="M 480 416 L 480 468 L 640 468 L 640 416" fill="none" stroke="#000000" stroke-miterlimit="10" pointer-events="none"/><path d="M 480 416 L 640 416" fill="none" stroke="#000000" stroke-miterlimit="10" pointer-events="none"/><g fill="#000000" font-family="Helvetica" pointer-events="none" text-anchor="middle" font-size="14px"><text x="559.5" y="408.5">manufactures</text></g><rect x="480" y="416" width="160" height="26" fill="#fff2cc" stroke="#d6b656" pointer-events="none"/><g fill="#000000" font-family="Helvetica" pointer-events="none" clip-path="url(#mx-clip-484-421-152-26-0)" font-size="12px"><text x="485.5" y="433.5">id (integer)</text></g><rect x="480" y="442" width="160" height="26" fill="#f8cecc" stroke="#b85450" pointer-events="none"/><g fill="#000000" font-family="Helvetica" pointer-events="none" clip-path="url(#mx-clip-484-447-152-26-0)" font-size="12px"><text x="485.5" y="459.5">manufacture (string)</text></g><path d="M 260 26 L 260 0 L 420 0 L 420 26" fill="#ffffff" stroke="#000000" stroke-miterlimit="10" pointer-events="none"/><path d="M 260 26 L 260 190 L 420 190 L 420 26" fill="none" stroke="#000000" stroke-miterlimit="10" pointer-events="none"/><path d="M 260 26 L 420 26" fill="none" stroke="#000000" stroke-miterlimit="10" pointer-events="none"/><g fill="#000000" font-family="Helvetica" pointer-events="none" text-anchor="middle" font-size="14px"><text x="339.5" y="18.5">orders</text></g><rect x="260" y="26" width="160" height="26" fill="#fff2cc" stroke="#d6b656" pointer-events="none"/><g fill="#000000" font-family="Helvetica" pointer-events="none" clip-path="url(#mx-clip-264-31-152-26-0)" font-size="12px"><text x="265.5" y="43.5">id  (integer)</text></g><rect x="260" y="52" width="160" height="26" fill="#d5e8d4" stroke="#82b366" pointer-events="none"/><g fill="#000000" font-family="Helvetica" pointer-events="none" clip-path="url(#mx-clip-264-57-152-26-0)" font-size="12px"><text x="265.5" y="69.5">salesman_id (integer)</text></g><rect x="260" y="78" width="160" height="26" fill="#d5e8d4" stroke="#82b366" pointer-events="none"/><g fill="#000000" font-family="Helvetica" pointer-events="none" clip-path="url(#mx-clip-264-83-152-26-0)" font-size="12px"><text x="265.5" y="95.5">buyer_id (integer)</text></g><rect x="260" y="104" width="160" height="56" fill="#f5f5f5" stroke="#666666" pointer-events="none"/><g fill="#333333" font-family="Helvetica" pointer-events="none" clip-path="url(#mx-clip-264-109-152-56-0)" font-size="12px"><text x="265.5" y="121.5">status (enum) </text><text x="265.5" y="135.5"> new, in progress, done</text><text x="265.5" y="149.5">(default - new)</text></g><rect x="260" y="160" width="160" height="30" fill="#f8cecc" stroke="#b85450" pointer-events="none"/><g fill="#000000" font-family="Helvetica" pointer-events="none" clip-path="url(#mx-clip-264-165-152-30-0)" font-size="12px"><text x="265.5" y="177.5">total_sum (real)</text></g><path d="M 480 46 L 480 20 L 650 20 L 650 46" fill="#ffffff" stroke="#000000" stroke-miterlimit="10" pointer-events="none"/><path d="M 480 46 L 480 150 L 650 150 L 650 46" fill="none" stroke="#000000" stroke-miterlimit="10" pointer-events="none"/><path d="M 480 46 L 650 46" fill="none" stroke="#000000" stroke-miterlimit="10" pointer-events="none"/><g fill="#000000" font-family="Helvetica" pointer-events="none" text-anchor="middle" font-size="14px"><text x="564.5" y="38.5">order_items</text></g><rect x="480" y="46" width="170" height="26" fill="#fff2cc" stroke="#d6b656" pointer-events="none"/><g fill="#000000" font-family="Helvetica" pointer-events="none" clip-path="url(#mx-clip-484-51-162-26-0)" font-size="12px"><text x="485.5" y="63.5">id  (integer)</text></g><rect x="480" y="72" width="170" height="26" fill="#d5e8d4" stroke="#82b366" pointer-events="none"/><g fill="#000000" font-family="Helvetica" pointer-events="none" clip-path="url(#mx-clip-484-77-162-26-0)" font-size="12px"><text x="485.5" y="89.5">order_id (integer)</text></g><rect x="480" y="98" width="170" height="26" fill="#d5e8d4" stroke="#82b366" pointer-events="none"/><g fill="#000000" font-family="Helvetica" pointer-events="none" clip-path="url(#mx-clip-484-103-162-26-0)" font-size="12px"><text x="485.5" y="115.5">product_id (string)</text></g><rect x="480" y="124" width="170" height="26" fill="#f8cecc" stroke="#b85450" pointer-events="none"/><g fill="#000000" font-family="Helvetica" pointer-events="none" clip-path="url(#mx-clip-484-129-162-26-0)" font-size="12px"><text x="485.5" y="141.5">quantity (integer)</text></g><path d="M 260 240 L 260 214 L 420 214 L 420 240" fill="#ffffff" stroke="#000000" stroke-miterlimit="10" pointer-events="none"/><path d="M 260 240 L 260 568 L 420 568 L 420 240" fill="none" stroke="#000000" stroke-miterlimit="10" pointer-events="none"/><path d="M 260 240 L 420 240" fill="none" stroke="#000000" stroke-miterlimit="10" pointer-events="none"/><g fill="#000000" font-family="Helvetica" pointer-events="none" text-anchor="middle" font-size="14px"><text x="339.5" y="232.5">products</text></g><rect x="260" y="240" width="160" height="26" fill="#fff2cc" stroke="#d6b656" pointer-events="none"/><g fill="#000000" font-family="Helvetica" pointer-events="none" clip-path="url(#mx-clip-264-245-152-26-0)" font-size="12px"><text x="265.5" y="257.5">id (string)</text></g><rect x="260" y="266" width="160" height="26" fill="#f8cecc" stroke="#b85450" pointer-events="none"/><g fill="#000000" font-family="Helvetica" pointer-events="none" clip-path="url(#mx-clip-264-271-152-26-0)" font-size="12px"><text x="265.5" y="283.5">vendor_code (string)</text></g><rect x="260" y="292" width="160" height="26" fill="#f8cecc" stroke="#b85450" pointer-events="none"/><g fill="#000000" font-family="Helvetica" pointer-events="none" clip-path="url(#mx-clip-264-297-152-26-0)" font-size="12px"><text x="265.5" y="309.5">product_name (string)</text></g><rect x="260" y="318" width="160" height="26" fill="#f8cecc" stroke="#b85450" pointer-events="none"/><g fill="#000000" font-family="Helvetica" pointer-events="none" clip-path="url(#mx-clip-264-323-152-26-0)" font-size="12px"><text x="265.5" y="335.5">amount (integer)</text></g><rect x="260" y="344" width="160" height="40" fill="#f8cecc" stroke="#b85450" pointer-events="none"/><g fill="#000000" font-family="Helvetica" pointer-events="none" clip-path="url(#mx-clip-264-349-152-40-0)" font-size="12px"><text x="265.5" y="361.5">deleted (boolean) </text><text x="265.5" y="375.5">default - false</text></g><rect x="260" y="384" width="160" height="26" fill="#f8cecc" stroke="#b85450" pointer-events="none"/><g fill="#000000" font-family="Helvetica" pointer-events="none" clip-path="url(#mx-clip-264-389-152-26-0)" font-size="12px"><text x="265.5" y="401.5">price (real)</text></g><rect x="260" y="410" width="160" height="26" fill="#f5f5f5" stroke="#666666" pointer-events="none"/><g fill="#333333" font-family="Helvetica" pointer-events="none" clip-path="url(#mx-clip-264-415-152-26-0)" font-size="12px"><text x="265.5" y="427.5">ingredients (text)</text></g><rect x="260" y="436" width="160" height="26" fill="#f5f5f5" stroke="#666666" pointer-events="none"/><g fill="#333333" font-family="Helvetica" pointer-events="none" clip-path="url(#mx-clip-264-441-152-26-0)" font-size="12px"><text x="265.5" y="453.5">img (text)</text></g><rect x="260" y="462" width="160" height="26" fill="#d5e8d4" stroke="#82b366" pointer-events="none"/><g fill="#000000" font-family="Helvetica" pointer-events="none" clip-path="url(#mx-clip-264-467-152-26-0)" font-size="12px"><text x="265.5" y="479.5">user_id (integer)</text></g><rect x="260" y="488" width="160" height="28" fill="#d5e8d4" stroke="#82b366" pointer-events="none"/><g fill="#000000" font-family="Helvetica" pointer-events="none" clip-path="url(#mx-clip-264-493-152-28-0)" font-size="12px"><text x="265.5" y="505.5">unit_id (integer)</text></g><rect x="260" y="516" width="160" height="26" fill="#d5e8d4" stroke="#82b366" pointer-events="none"/><g fill="#000000" font-family="Helvetica" pointer-events="none" clip-path="url(#mx-clip-264-521-152-26-0)" font-size="12px"><text x="265.5" y="533.5">manufacture_id (integer)</text></g><rect x="260" y="542" width="160" height="26" fill="#d5e8d4" stroke="#82b366" pointer-events="none"/><g fill="#000000" font-family="Helvetica" pointer-events="none" clip-path="url(#mx-clip-264-547-152-26-0)" font-size="12px"><text x="265.5" y="559.5">category_id (integer)</text></g><path d="M 650 111 L 670 111 Q 680 111 680 121 L 680 243 Q 680 253 670 253 L 420 253" fill="none" stroke="#000000" stroke-miterlimit="10" pointer-events="none"/><path d="M 654 107 L 654 115 M 658 107 L 658 115" fill="none" stroke="#000000" stroke-miterlimit="10" pointer-events="none"/><path d="M 424 249 L 424 257 M 428 249 L 428 257" fill="none" stroke="#000000" stroke-miterlimit="10" pointer-events="none"/><path d="M 200 119 L 220 119 Q 230 119 230 109 L 230 100.5 Q 230 92 230 82 L 230 73.5 Q 230 65 240 65 L 260 65" fill="none" stroke="#000000" stroke-miterlimit="10" pointer-events="none"/><path d="M 252 69 L 252 61 M 260 61 L 252 65 L 260 69" fill="none" stroke="#000000" stroke-miterlimit="10" pointer-events="none"/><path d="M 480 276 L 480 250 L 640 250 L 640 276" fill="#ffffff" stroke="#000000" stroke-miterlimit="10" pointer-events="none"/><path d="M 480 276 L 480 382 L 640 382 L 640 276" fill="none" stroke="#000000" stroke-miterlimit="10" pointer-events="none"/><path d="M 480 276 L 640 276" fill="none" stroke="#000000" stroke-miterlimit="10" pointer-events="none"/><g fill="#000000" font-family="Helvetica" pointer-events="none" text-anchor="middle" font-size="14px"><text x="559.5" y="268.5">units</text></g><rect x="480" y="276" width="160" height="26" fill="#fff2cc" stroke="#d6b656" pointer-events="none"/><g fill="#000000" font-family="Helvetica" pointer-events="none" clip-path="url(#mx-clip-484-281-152-26-0)" font-size="12px"><text x="485.5" y="293.5">id (integer)</text></g><rect x="480" y="302" width="160" height="28" fill="#f8cecc" stroke="#b85450" pointer-events="none"/><g fill="#000000" font-family="Helvetica" pointer-events="none" clip-path="url(#mx-clip-484-307-152-28-0)" font-size="12px"><text x="485.5" y="319.5">unit_name (string) </text></g><rect x="480" y="330" width="160" height="26" fill="#f8cecc" stroke="#b85450" pointer-events="none"/><g fill="#000000" font-family="Helvetica" pointer-events="none" clip-path="url(#mx-clip-484-335-152-26-0)" font-size="12px"><text x="485.5" y="347.5">measure (real) (def = 1)</text></g><rect x="480" y="356" width="160" height="26" fill="#f8cecc" stroke="#b85450" pointer-events="none"/><g fill="#000000" font-family="Helvetica" pointer-events="none" clip-path="url(#mx-clip-484-361-152-26-0)" font-size="12px"><text x="485.5" y="373.5">unit (string)</text></g><path d="M 420 502 L 440 502 Q 450 502 450 492 L 450 405.5 Q 450 395.5 450 385.5 L 450 299 Q 450 289 460 289 L 480 289" fill="none" stroke="#000000" stroke-miterlimit="10" pointer-events="none"/><path d="M 472 293 L 472 285 M 480 285 L 472 289 L 480 293" fill="none" stroke="#000000" stroke-miterlimit="10" pointer-events="none"/><rect x="0" y="0" width="70" height="30" fill="#f8cecc" stroke="#b85450" pointer-events="none"/><g fill="#000000" font-family="Helvetica" pointer-events="none" clip-path="url(#mx-clip-4-5-62-30-0)" font-size="12px"><text x="5.5" y="17.5">not NULL</text></g><rect x="80" y="0" width="30" height="30" fill="#fff2cc" stroke="#d6b656" pointer-events="none"/><g fill="#000000" font-family="Helvetica" pointer-events="none" clip-path="url(#mx-clip-84-5-22-30-0)" font-size="12px"><text x="85.5" y="17.5">PK</text></g><rect x="120" y="0" width="30" height="30" fill="#d5e8d4" stroke="#82b366" pointer-events="none"/><g fill="#000000" font-family="Helvetica" pointer-events="none" clip-path="url(#mx-clip-124-5-22-30-0)" font-size="12px"><text x="125.5" y="17.5">FK</text></g><path d="M 200 119 L 220 119 Q 230 119 230 129 L 230 287 Q 230 297 230 307 L 230 465 Q 230 475 240 475 L 260 475" fill="none" stroke="#000000" stroke-miterlimit="10" pointer-events="none"/><path d="M 252 479 L 252 471 M 260 471 L 252 475 L 260 479" fill="none" stroke="#000000" stroke-miterlimit="10" pointer-events="none"/><path d="M 200 119 L 220 119 Q 230 119 230 112 L 230 108.5 Q 230 105 230 98 L 230 94.5 Q 230 91 240 91 L 260 91" fill="none" stroke="#000000" stroke-miterlimit="10" pointer-events="none"/><path d="M 252 95 L 252 87 M 260 87 L 252 91 L 260 95" fill="none" stroke="#000000" stroke-miterlimit="10" pointer-events="none"/></g></svg>
